<svg xmlns="http://www.w3.org/2000/svg" xml:space="preserve" width="128" height="128" viewBox="0 0 28 28"><path fill="#FFE577" d="M20.437 6.5C13 2.063 7.437 4 5.937 9.375c-1.196 4.287 4.335 17.08 6.938 16.813 3.376-.347 14.122-15.774 7.562-19.688zm-7.358 8.617.546-3.054-2-.063 3.187-4.938-.375 2.813 1.938.25-3.296 4.992z"/><path d="M14 26a.502.502 0 0 1-.331-.125C13.315 25.563 5 18.144 5 11c0-4.963 4.037-9 9-9s9 4.037 9 9c0 7.144-8.315 14.563-8.669 14.875A.502.502 0 0 1 14 26zm0-23c-4.411 0-8 3.589-8 8 0 5.918 6.451 12.358 8 13.819 1.549-1.461 8-7.901 8-13.819 0-4.411-3.589-8-8-8z"/><path d="M13 16a.499.499 0 0 1-.49-.601l.598-2.898H11.5a.498.498 0 0 1-.421-.769l3.5-5.5a.499.499 0 0 1 .911.37L14.892 9.5H16.5a.498.498 0 0 1 .421.769l-3.5 5.5A.498.498 0 0 1 13 16zm-.589-4.5h1.312a.498.498 0 0 1 .49.602l-.172.832L15.59 10.5h-1.312a.498.498 0 0 1-.49-.602l.172-.832-1.549 2.434z"/></svg>