<svg xmlns="http://www.w3.org/2000/svg" xml:space="preserve" width="128" height="128" viewBox="0 0 28 28"><path fill="#FFE577" d="M23.104 20.013c5.086-2.184-1.163-10.816-4.672-12.471-13.822-6.52-14.531.465-16.043 3.026-2.045 3.465 13.668 12.472 20.715 9.445z"/><path fill="#FFA0C6" d="M25.176 12.597c-.747-2.669-3.331-3.159-4.729-2.025-4.075 3.307-3.99 6.88-2.535 11.376 1.707 5.275 4.469 3.834 6.72-1.53 1.141-2.718.969-6.301.544-7.821z"/><path d="M20.5 25a.5.5 0 0 1-.493-.582L20.91 19H18.5a.502.502 0 0 1-.407-.791l5-7a.508.508 0 0 1 .606-.168.5.5 0 0 1 .291.557L23.11 16h2.39a.501.501 0 0 1 .424.765l-5 8A.5.5 0 0 1 20.5 25zm-1.028-7H21.5a.5.5 0 0 1 .493.582l-.588 3.525L24.598 17H22.5a.501.501 0 0 1-.491-.598l.543-2.716L19.472 18zM16.5 17h-10A4.505 4.505 0 0 1 2 12.5a4.505 4.505 0 0 1 4.427-4.499A6.476 6.476 0 0 1 12.75 3a6.498 6.498 0 0 1 5.997 4.013C18.831 7.005 18.915 7 19 7c1.345 0 2.601.521 3.535 1.469a.5.5 0 0 1-.711.703c-.862-.873-2.123-1.302-3.309-1.121a.513.513 0 0 1-.568-.329A5.5 5.5 0 0 0 12.75 4a5.484 5.484 0 0 0-5.427 4.611.502.502 0 0 1-.542.417l-.115-.013C6.61 9.008 6.556 9 6.5 9 4.57 9 3 10.57 3 12.5S4.57 16 6.5 16h10a.5.5 0 0 1 0 1z"/></svg>